<svg width="65" height="69" viewBox="0 0 65 69" fill="none" xmlns="http://www.w3.org/2000/svg">
<g filter="url(#filter0_ddddd_183_48973)">
<rect x="4.66666" y="2.20166" width="56" height="56" rx="28" fill="white"/>
<g clip-path="url(#clip0_183_48973)">
<path d="M25.7114 43.3219H25.3763V45.2016H25.7114V43.3219Z" fill="#A83338"/>
<path d="M28.3547 43.508C28.2244 43.3777 28.0568 43.3219 27.8521 43.3219C27.7404 43.3219 27.6473 43.3405 27.5356 43.3963C27.4425 43.4336 27.3681 43.4894 27.2936 43.5638C27.2378 43.4894 27.1633 43.4336 27.0702 43.3963C26.9772 43.3591 26.8655 43.3219 26.7724 43.3219C26.6793 43.3219 26.6049 43.3405 26.5304 43.3591C26.4746 43.3777 26.4187 43.4149 26.3815 43.4336V43.3777H26.065V45.2016H26.4001V43.9547C26.4001 43.8616 26.4373 43.7872 26.5118 43.7127C26.5863 43.6569 26.6793 43.6197 26.791 43.6197C26.8841 43.6197 26.9772 43.6569 27.0516 43.7127C27.1261 43.7685 27.1633 43.8616 27.1633 43.9547V45.2016H27.4984V43.9547C27.4984 43.8616 27.5356 43.7872 27.6101 43.7127C27.6845 43.6383 27.759 43.6197 27.8707 43.6197C27.9824 43.6197 28.0568 43.6569 28.1313 43.7127C28.2058 43.7685 28.243 43.8616 28.243 43.9547V45.2016H28.5781V43.9547C28.5781 43.7872 28.5036 43.6383 28.3547 43.508Z" fill="#A83338"/>
<path d="M30.4954 44.8669C30.4582 44.8296 30.4396 44.811 30.4396 44.7552V43.8433C30.4396 43.6758 30.3651 43.5455 30.2162 43.4525C30.0859 43.3594 29.9184 43.3036 29.7322 43.3036C29.5461 43.3036 29.3599 43.3594 29.2296 43.4525C29.0807 43.5641 28.9876 43.6944 28.9876 43.8619V44.0108H29.3413V43.9177C29.3413 43.8247 29.3785 43.7502 29.453 43.6944C29.5274 43.6386 29.6205 43.6014 29.7322 43.6014C29.8253 43.6014 29.9184 43.6386 29.9928 43.6944C30.0673 43.7502 30.1045 43.8247 30.1045 43.9177C30.1045 43.9922 30.0673 44.048 29.9742 44.0852C29.8997 44.1038 29.8067 44.1411 29.6764 44.1411C29.4716 44.1597 29.3041 44.2155 29.1551 44.3086C29.0062 44.4202 28.9131 44.5505 28.9131 44.718C28.9131 44.8855 28.969 45.0157 29.0993 45.1088C29.211 45.2019 29.3785 45.2577 29.5833 45.2577C29.7136 45.2577 29.8253 45.2391 29.9184 45.2019C30.0114 45.1646 30.0859 45.1088 30.1604 45.053C30.1976 45.1088 30.2348 45.146 30.2907 45.1832C30.3651 45.2205 30.4396 45.2391 30.514 45.2391H30.663V44.9413H30.6443C30.5699 44.9041 30.5327 44.8855 30.4954 44.8669ZM30.1045 44.5133C30.1045 44.6249 30.0487 44.7366 29.9556 44.811C29.8625 44.8855 29.7322 44.9227 29.6019 44.9227C29.5088 44.9227 29.4344 44.9041 29.3785 44.8669C29.3041 44.8296 29.2854 44.7738 29.2854 44.6994C29.2854 44.6249 29.3227 44.5691 29.3971 44.5133C29.4716 44.4574 29.5461 44.4388 29.6577 44.4202H29.7322C29.9184 44.4016 30.0487 44.383 30.1417 44.3272L30.1045 44.5133Z" fill="#A83338"/>
<path d="M32.3756 43.5452C32.2266 43.3963 32.0405 43.3219 31.8357 43.3219C31.724 43.3219 31.6123 43.3405 31.5193 43.3777C31.4448 43.4149 31.389 43.4522 31.3331 43.508V43.3777H30.998V45.2016H31.3331V44.0477C31.3331 43.936 31.3703 43.843 31.4634 43.7499C31.5565 43.6755 31.6682 43.6197 31.7985 43.6197C31.9288 43.6197 32.0405 43.6569 32.1149 43.7499C32.208 43.8244 32.2453 43.9174 32.2453 44.0477V45.2016H32.5803V44.0477C32.5989 43.8616 32.5245 43.6755 32.3756 43.5452Z" fill="#A83338"/>
<path d="M24.8178 44.2339C24.6875 44.1409 24.5386 44.0664 24.3524 44.0664C24.2221 44.0478 24.1105 44.0292 24.036 43.992C23.9429 43.9548 23.8871 43.8803 23.8871 43.8059C23.8871 43.7314 23.9243 43.6756 23.9801 43.6384C24.036 43.6012 24.1291 43.5826 24.2221 43.5826C24.3338 43.5826 24.4455 43.6198 24.52 43.6756C24.5758 43.7128 24.6131 43.7687 24.6131 43.8431L24.9295 43.6942C24.8923 43.6012 24.8364 43.5081 24.762 43.4523C24.6317 43.3406 24.4455 43.2848 24.2221 43.2848C24.0174 43.2848 23.8498 43.3406 23.7382 43.4337C23.6078 43.5267 23.552 43.657 23.552 43.8245C23.552 43.9734 23.6078 44.1036 23.7382 44.2153C23.8498 44.3084 23.9988 44.3828 24.1663 44.3828C24.3152 44.4014 24.4455 44.42 24.5386 44.4759C24.6503 44.5317 24.7061 44.6061 24.7061 44.6992C24.7061 44.7736 24.6689 44.8295 24.5944 44.8667C24.52 44.9039 24.4083 44.9411 24.278 44.9411C24.1477 44.9411 24.036 44.9039 23.9615 44.8295C23.8871 44.7736 23.8685 44.6992 23.8498 44.6061L23.5148 44.7364C23.552 44.8667 23.6078 44.9783 23.7195 45.0714C23.8685 45.2017 24.0546 45.2575 24.2966 45.2575C24.52 45.2575 24.7061 45.2017 24.8364 45.1086C24.9667 44.997 25.0412 44.8667 25.0412 44.6992C25.0226 44.4759 24.9481 44.3456 24.8178 44.2339Z" fill="#A83338"/>
<path d="M33.5483 45.2017V42.5962H34.8141C35.0561 42.5962 35.2609 42.6334 35.447 42.7079C35.6146 42.7823 35.7635 42.894 35.8566 43.0428C35.9497 43.1917 36.0055 43.3592 36.0055 43.5639C36.0055 43.7686 35.9497 43.9361 35.8566 44.085C35.7635 44.2339 35.6146 44.3456 35.447 44.42C35.2609 44.4945 35.0561 44.5317 34.8141 44.5317H34.0509L34.4418 44.1595V45.1644H33.5483V45.2017ZM34.4232 44.2897L34.0323 43.8989H34.7397C34.87 43.8989 34.9444 43.8803 35.0003 43.8245C35.0561 43.7686 35.0934 43.6942 35.0934 43.6012C35.0934 43.5081 35.0561 43.4337 35.0003 43.3778C34.9444 43.322 34.8514 43.3034 34.7397 43.3034H34.0323L34.4232 42.9126V44.2897Z" fill="black"/>
<path d="M36.2847 45.2017V42.5962H37.5319C37.7739 42.5962 37.9787 42.6334 38.1648 42.7079C38.351 42.7823 38.4813 42.894 38.5744 43.0428C38.6675 43.1917 38.7233 43.3592 38.7233 43.5639C38.7233 43.7686 38.6675 43.9361 38.5744 44.085C38.4813 44.2339 38.3324 44.3456 38.1648 44.42C37.9973 44.4945 37.7739 44.5317 37.5319 44.5317H36.7687L37.1596 44.1781V45.183H36.2847V45.2017ZM37.1596 44.2897L36.7687 43.8989H37.4761C37.6064 43.8989 37.6809 43.8803 37.7367 43.8245C37.7925 43.7686 37.8298 43.6942 37.8298 43.6012C37.8298 43.5081 37.7925 43.4337 37.7367 43.3778C37.6809 43.322 37.5878 43.3034 37.4761 43.3034H36.7687L37.1596 42.9126V44.2897ZM37.8298 45.2017L37.1969 44.2525H38.1276L38.7791 45.2017H37.8298Z" fill="black"/>
<path d="M40.3986 45.2573C40.1939 45.2573 39.9891 45.2201 39.8029 45.1642C39.6168 45.0898 39.4679 44.9967 39.3376 44.8851C39.2073 44.7548 39.0956 44.6245 39.0397 44.457C38.9653 44.2895 38.928 44.1034 38.928 43.9173C38.928 43.7126 38.9653 43.5451 39.0397 43.3776C39.1142 43.2101 39.2073 43.0613 39.3376 42.9496C39.4679 42.8193 39.6168 42.7263 39.8029 42.6704C39.9891 42.596 40.1752 42.5774 40.38 42.5774C40.5848 42.5774 40.7895 42.6146 40.9757 42.6704C41.1618 42.7449 41.3108 42.8379 41.4411 42.9496C41.5714 43.0799 41.6831 43.2101 41.7389 43.3776C41.8134 43.5451 41.8506 43.7312 41.8506 43.9173C41.8506 44.1221 41.8134 44.2895 41.7389 44.457C41.6644 44.6245 41.5714 44.7734 41.4411 44.8851C41.3108 45.0154 41.1618 45.1084 40.9757 45.1642C40.8082 45.2387 40.622 45.2573 40.3986 45.2573ZM40.3986 44.5501C40.4731 44.5501 40.5475 44.5315 40.622 44.5129C40.6965 44.4943 40.7523 44.4384 40.8082 44.3826C40.864 44.3268 40.9012 44.2523 40.9385 44.1779C40.9757 44.1034 40.9757 44.0104 40.9757 43.8987C40.9757 43.7871 40.9571 43.7126 40.9385 43.6196C40.9012 43.5451 40.864 43.4707 40.8082 43.4149C40.7523 43.359 40.6965 43.3218 40.622 43.2846C40.5475 43.2474 40.4731 43.2474 40.3986 43.2474C40.3242 43.2474 40.2497 43.266 40.1752 43.2846C40.1008 43.3218 40.0449 43.359 39.9891 43.4149C39.9333 43.4707 39.896 43.5451 39.8588 43.6196C39.8216 43.694 39.8216 43.7871 39.8216 43.8987C39.8216 44.0104 39.8402 44.0848 39.8588 44.1779C39.896 44.2523 39.9333 44.3268 39.9891 44.3826C40.0449 44.4384 40.1008 44.4757 40.1752 44.5129C40.2497 44.5501 40.3242 44.5501 40.3986 44.5501Z" fill="black"/>
<path d="M33.176 33.2352L42.1856 24.2091L45.6667 27.7079L33.176 15.2017L20.6667 27.7079L27.0144 34.0354L30.4954 30.5553L33.176 33.2352Z" fill="#EF3742"/>
<path d="M45.6666 27.708L42.1856 24.2092L33.176 33.2353L30.4954 30.5554L27.0144 34.0355L33.176 40.1956L45.6666 27.708Z" fill="#A83338"/>
</g>
</g>
<defs>
<filter id="filter0_ddddd_183_48973" x="0.666656" y="0.20166" width="64" height="70" filterUnits="userSpaceOnUse" color-interpolation-filters="sRGB">
<feFlood flood-opacity="0" result="BackgroundImageFix"/>
<feColorMatrix in="SourceAlpha" type="matrix" values="0 0 0 0 0 0 0 0 0 0 0 0 0 0 0 0 0 0 127 0" result="hardAlpha"/>
<feOffset/>
<feGaussianBlur stdDeviation="1"/>
<feColorMatrix type="matrix" values="0 0 0 0 0.121569 0 0 0 0 0.121569 0 0 0 0 0.121569 0 0 0 0.1 0"/>
<feBlend mode="normal" in2="BackgroundImageFix" result="effect1_dropShadow_183_48973"/>
<feColorMatrix in="SourceAlpha" type="matrix" values="0 0 0 0 0 0 0 0 0 0 0 0 0 0 0 0 0 0 127 0" result="hardAlpha"/>
<feOffset dy="2"/>
<feGaussianBlur stdDeviation="1"/>
<feColorMatrix type="matrix" values="0 0 0 0 0.121569 0 0 0 0 0.121569 0 0 0 0 0.121569 0 0 0 0.08 0"/>
<feBlend mode="normal" in2="effect1_dropShadow_183_48973" result="effect2_dropShadow_183_48973"/>
<feColorMatrix in="SourceAlpha" type="matrix" values="0 0 0 0 0 0 0 0 0 0 0 0 0 0 0 0 0 0 127 0" result="hardAlpha"/>
<feOffset dy="4"/>
<feGaussianBlur stdDeviation="1"/>
<feColorMatrix type="matrix" values="0 0 0 0 0.121569 0 0 0 0 0.121569 0 0 0 0 0.121569 0 0 0 0.04 0"/>
<feBlend mode="normal" in2="effect2_dropShadow_183_48973" result="effect3_dropShadow_183_48973"/>
<feColorMatrix in="SourceAlpha" type="matrix" values="0 0 0 0 0 0 0 0 0 0 0 0 0 0 0 0 0 0 127 0" result="hardAlpha"/>
<feOffset dy="6"/>
<feGaussianBlur stdDeviation="2"/>
<feColorMatrix type="matrix" values="0 0 0 0 0.121569 0 0 0 0 0.121569 0 0 0 0 0.121569 0 0 0 0.02 0"/>
<feBlend mode="normal" in2="effect3_dropShadow_183_48973" result="effect4_dropShadow_183_48973"/>
<feColorMatrix in="SourceAlpha" type="matrix" values="0 0 0 0 0 0 0 0 0 0 0 0 0 0 0 0 0 0 127 0" result="hardAlpha"/>
<feOffset dy="8"/>
<feGaussianBlur stdDeviation="2"/>
<feColorMatrix type="matrix" values="0 0 0 0 0.121569 0 0 0 0 0.121569 0 0 0 0 0.121569 0 0 0 0.02 0"/>
<feBlend mode="normal" in2="effect4_dropShadow_183_48973" result="effect5_dropShadow_183_48973"/>
<feBlend mode="normal" in="SourceGraphic" in2="effect5_dropShadow_183_48973" result="shape"/>
</filter>
<clipPath id="clip0_183_48973">
<rect width="25" height="30" fill="white" transform="translate(20.6667 15.2017)"/>
</clipPath>
</defs>
</svg>
